<?xml version="1.0" encoding="UTF-8" standalone="no"?>
<svg
   xmlns:dc="http://purl.org/dc/elements/1.1/"
   xmlns:cc="http://creativecommons.org/ns#"
   xmlns:rdf="http://www.w3.org/1999/02/22-rdf-syntax-ns#"
   xmlns:svg="http://www.w3.org/2000/svg"
   xmlns="http://www.w3.org/2000/svg"
   xmlns:sodipodi="http://sodipodi.sourceforge.net/DTD/sodipodi-0.dtd"
   xmlns:inkscape="http://www.inkscape.org/namespaces/inkscape"
   enable-background="new"
   id="svg8"
   version="1.1"
   viewBox="0 0 105 74"
   height="74mm"
   width="105mm"
   sodipodi:docname="Zeichnung.svg"
   inkscape:version="0.92.2 5c3e80d, 2017-08-06">
  <sodipodi:namedview
     pagecolor="#ffffff"
     bordercolor="#666666"
     borderopacity="1"
     objecttolerance="10"
     gridtolerance="10"
     guidetolerance="10"
     inkscape:pageopacity="0"
     inkscape:pageshadow="2"
     inkscape:window-width="1366"
     inkscape:window-height="709"
     id="namedview33"
     showgrid="false"
     inkscape:zoom="2.9"
     inkscape:cx="149.83585"
     inkscape:cy="76.549023"
     inkscape:window-x="0"
     inkscape:window-y="32"
     inkscape:window-maximized="1"
     inkscape:current-layer="layer5" />
  <defs
     id="defs2" />
  <metadata
     id="metadata5">
    <rdf:RDF>
      <cc:Work
         rdf:about="">
        <dc:format>image/svg+xml</dc:format>
        <dc:type
           rdf:resource="http://purl.org/dc/dcmitype/StillImage" />
        <dc:title />
      </cc:Work>
    </rdf:RDF>
  </metadata>
  <g
     style="display:inline"
     id="layer6">
    <rect
       y="-0.92629069"
       x="-1.1707232"
       height="76.416298"
       width="107.81297"
       id="rect4903"
       style="fill:#000000;fill-opacity:1;stroke:none;stroke-width:0.26458332;stroke-opacity:1" />
  </g>
  <g
     style="display:inline"
     id="layer5">
    <path
       id="path4770"
       d="m 65.342806,64.678822 c -0.315975,-0.09846 -0.520003,-0.09833 -0.690246,-0.244451 l -0.375233,-0.3185 0.04465,-0.95818 c -5.37e-4,-0.08571 0.408291,-0.445876 0.3601,-0.159356 -0.02309,0.137254 -0.242369,0.390552 -0.07531,1.169212 0.399538,0.223362 0.02281,0.05982 1.631402,0.379404 l 1.173718,0.0958 0.699541,-0.09764 0.200549,-0.396863 0.0039,-0.540897 C 67.587208,63.525313 67.01603,63.401213 66.330821,63.276253 64.02168,62.85514 65.08348,63.202848 64.321975,63.157691 l -0.06332,-0.240548 -0.515578,-0.153724 -0.870864,-0.170138 c -0.478983,-0.09358 -1.90865,-0.350372 -3.177045,-0.570654 -3.086074,-0.53596 -10.324361,-1.851255 -11.761477,-2.137221 -0.634197,-0.126197 -1.775753,-0.339375 -2.536789,-0.473729 -0.761037,-0.134356 -2.075555,-0.379299 -2.921152,-0.544319 -0.845596,-0.16502 -2.333077,-0.439326 -3.305513,-0.609568 -0.972436,-0.170241 -2.286954,-0.410169 -2.921151,-0.53317 -0.634198,-0.123002 -1.706568,-0.330791 -2.383045,-0.461753 -0.676477,-0.130963 -1.541291,-0.309358 -1.92181,-0.396435 -0.380518,-0.08708 -1.176148,-0.222616 -1.768065,-0.301199 -0.591918,-0.07858 -1.422139,-0.21799 -1.844938,-0.309793 -0.422798,-0.0918 -1.425983,-0.273033 -2.229299,-0.402736 -0.803317,-0.129703 -1.841094,-0.32931 -2.306172,-0.443571 -0.816139,-0.200511 -3.19657,-0.61812 -4.304855,-0.755219 -0.295959,-0.03661 -0.63214,-0.09041 -0.747069,-0.119549 l -0.208962,-0.05299 -0.218971,0.616132 c -0.120435,0.338872 -0.318515,0.715918 -0.440178,0.837879 l -0.221205,0.221748 -1.503289,-0.03511 -1.503287,-0.03511 -0.477017,-0.15221 -0.477019,-0.152204 -0.176396,-0.388099 -0.176397,-0.388099 v -0.760421 -0.760422 l -0.345926,-0.07858 c -0.190259,-0.04322 -0.761037,-0.142766 -1.268395,-0.221211 -0.507357,-0.07844 -1.102118,-0.21203 -1.321689,-0.296856 L 10.005883,52.734575 9.7615567,52.218433 9.5172306,51.702291 9.6569581,48.08287 c 0.07685,-1.990681 0.1674566,-5.526679 0.2013473,-7.857773 l 0.06162,-4.238354 0.3063676,-0.69686 0.306368,-0.696861 0.597066,-0.403797 c 0.328387,-0.222086 0.942992,-0.591843 1.36579,-0.821682 0.829438,-0.450892 1.346974,-0.765513 3.19003,-1.939284 0.65524,-0.417298 1.280574,-0.758723 1.38963,-0.758723 0.210855,0 1.228904,-0.489668 1.53873,-0.740107 0.101832,-0.08231 1.29211,-0.722739 2.645064,-1.423171 1.352955,-0.700432 2.534886,-1.331409 2.626517,-1.402169 0.09163,-0.07076 0.887258,-0.500719 1.768065,-0.955465 0.880805,-0.454746 2.224132,-1.157885 2.985169,-1.562529 0.761037,-0.404644 1.591259,-0.841763 1.844938,-0.971375 0.253678,-0.12961 0.910938,-0.49241 1.460575,-0.806221 1.303647,-0.744304 2.524182,-1.411148 4.227982,-2.309972 0.761037,-0.401478 2.095316,-1.120791 2.965064,-1.598475 0.869748,-0.477683 1.608306,-0.868515 1.641238,-0.868515 0.03293,0 0.789933,-0.415481 1.682221,-0.923293 l 1.622341,-0.923294 0.682901,-0.153416 0.6829,-0.153416 1.665205,0.229529 c 0.915863,0.12624 2.357056,0.333315 3.202652,0.460167 2.069738,0.310488 4.668325,0.671051 6.07292,0.842641 0.634197,0.07748 1.499012,0.209335 1.92181,0.29302 0.422798,0.08368 1.668131,0.266591 2.767407,0.406457 1.099275,0.139865 2.863497,0.383384 3.920492,0.541154 1.056996,0.15777 2.752032,0.399632 3.766748,0.537473 1.014716,0.13784 2.81353,0.38432 3.997365,0.547734 1.183835,0.163414 2.740501,0.370039 3.459258,0.459166 0.718757,0.08913 1.929497,0.264413 2.690534,0.389521 0.761037,0.12511 1.971777,0.291682 2.690534,0.37016 1.930551,0.210786 9.118893,1.182502 12.091955,1.634583 l 0.484221,0.07363 0.171691,0.207382 0.17169,0.207381 0.06916,2.755388 c 0.03804,1.515462 0.111195,5.42942 0.162575,8.69768 l 0.09342,5.942295 -2.355935,2.210405 c -2.163131,2.029511 -3.54363,3.316406 -7.199636,6.711469 -0.730257,0.678137 -2.187684,2.040744 -3.238725,3.028017 -1.051042,0.987271 -2.2209,2.062272 -2.599686,2.38889 -0.66466,0.573118 -2.519882,2.316995 -3.992995,3.753349 -0.391215,0.381451 -1.068227,1.005645 -1.50447,1.387097 -0.436245,0.381452 -1.332968,1.217372 -1.992719,1.857599 -0.659751,0.640229 -1.399138,1.316439 -1.64308,1.502689 l -0.443532,0.338639 h -0.452868 -0.452869 l -0.235366,0.600654 -0.235367,0.600654 -0.463336,0.09289 c -1.291701,0.006 -0.816038,-0.06295 -1.333966,-0.07184 -0.475849,0.01285 -0.911856,-0.06142 -1.361163,-0.195169 z m 3.82689,-3.416081 c 0.01058,-0.72052 0.03454,-1.500762 0.05328,-1.733871 0.01873,-0.23311 0.05065,-1.04803 0.07093,-1.810933 0.02028,-0.762904 0.131021,-2.878227 0.246098,-4.700719 0.115078,-1.822492 0.237345,-3.990465 0.271705,-4.817716 l 0.06247,-1.504097 -0.169668,-0.213414 -0.169668,-0.213415 -0.999341,-0.179571 c -2.342076,-0.420847 -4.625141,-0.813782 -5.874087,-1.010981 -0.736237,-0.116247 -1.912385,-0.324048 -2.613661,-0.461781 -2.641837,-0.518866 -3.609873,-0.696071 -4.580561,-0.8385 -0.549637,-0.08065 -1.414452,-0.223327 -1.92181,-0.317066 -0.507358,-0.09374 -1.130024,-0.201166 -1.383703,-0.238728 -0.456533,-0.0676 -1.183163,-0.195694 -4.766089,-0.840198 -1.014716,-0.182529 -2.467604,-0.423055 -3.228641,-0.534502 -0.761037,-0.111446 -2.14474,-0.346929 -3.074896,-0.523294 -0.930156,-0.176364 -2.556007,-0.464331 -3.613003,-0.639925 -1.056995,-0.175595 -2.06018,-0.345735 -2.2293,-0.378092 -2.194104,-0.419766 -5.733817,-1.054799 -6.457281,-1.158451 -0.507358,-0.07269 -1.302988,-0.211263 -1.768066,-0.307939 -0.970011,-0.201638 -3.517379,-0.635596 -6.303537,-1.073843 -1.056995,-0.16626 -2.336921,-0.402232 -2.844278,-0.524383 -0.507358,-0.122151 -1.302988,-0.267858 -1.768066,-0.323792 -0.465078,-0.05593 -1.797112,-0.282243 -2.960076,-0.502909 -1.162963,-0.220667 -2.154281,-0.361312 -2.202928,-0.312545 -0.04865,0.04877 -0.121614,1.429863 -0.162149,3.069106 -0.04053,1.639241 -0.130517,5.061085 -0.199961,7.604097 l -0.126263,4.623658 0.201371,0.325048 0.20137,0.325049 0.5872,0.09402 c 0.322959,0.05171 1.106088,0.203771 1.740285,0.337916 0.634197,0.134146 1.339,0.271156 1.566227,0.304468 0.227228,0.03331 0.676931,0.130019 0.999342,0.214904 0.322409,0.08489 1.035903,0.198204 1.585541,0.25182 0.549637,0.05362 1.103119,0.135839 1.229958,0.182719 0.12684,0.04688 0.40358,0.108347 0.614979,0.136592 0.2114,0.02825 1.110807,0.196822 1.998683,0.374612 0.887876,0.177791 2.202394,0.421123 2.921151,0.540739 0.718757,0.119615 2.240831,0.3948 3.382386,0.611522 1.141555,0.216723 2.525258,0.463309 3.074896,0.547971 0.549638,0.08466 1.206897,0.220323 1.460576,0.30147 0.253679,0.08115 2.087085,0.429176 4.074237,0.7734 4.339582,0.751722 7.534874,1.323249 8.994071,1.60873 1.857428,0.363391 3.489575,0.673617 4.842961,0.920509 0.718757,0.131121 2.033275,0.371915 2.921152,0.535096 0.887876,0.163181 1.891061,0.337573 2.229299,0.387537 0.603609,0.08916 0.9898,0.160814 3.305514,0.613294 0.634197,0.12392 1.810345,0.33671 2.613661,0.472868 0.803317,0.136156 1.795451,0.314245 2.204742,0.395751 1.211578,0.265277 2.413111,0.486011 3.637561,0.66913 0.803316,0.120137 1.650835,0.225236 1.883374,0.233554 l 0.422798,0.01512 z m -6.16901,-1.961691 c -1.651819,-0.253992 -4.233711,-0.758699 -4.612344,-0.901621 -0.2114,-0.0798 -0.972436,-0.251637 -1.691193,-0.38187 -0.718757,-0.130231 -1.82572,-0.338951 -2.459917,-0.463821 -1.934522,-0.380897 -4.92317,-0.926074 -10.454647,-1.907095 -0.972436,-0.172464 -2.459917,-0.452587 -3.305513,-0.622497 -0.845597,-0.16991 -2.263892,-0.442557 -3.151769,-0.605883 -0.887876,-0.163326 -2.82506,-0.519496 -4.304854,-0.791487 -1.479794,-0.27199 -3.693719,-0.697329 -4.919834,-0.945196 -1.226115,-0.247866 -2.436855,-0.474748 -2.690534,-0.504179 -0.596567,-0.06921 -2.948367,-0.507748 -4.227982,-0.788386 -0.549638,-0.120542 -1.864156,-0.358694 -2.921151,-0.529224 -1.056996,-0.17053 -2.440147,-0.395851 -3.07367,-0.500713 l -1.15186,-0.190658 -0.260296,-0.260935 c -0.143164,-0.143513 -0.334305,-0.525518 -0.424759,-0.8489 l -0.164461,-0.587964 0.07815,-2.388891 c 0.04298,-1.313889 0.109306,-3.375776 0.147382,-4.581968 l 0.06923,-2.193079 0.165279,-0.309584 0.165278,-0.309583 0.399278,-0.100458 0.399278,-0.100458 1.479658,0.271005 c 0.813812,0.149053 1.998547,0.366574 2.632744,0.483382 0.634197,0.116805 2.329234,0.419002 3.766748,0.671547 1.437514,0.252545 3.755217,0.671496 5.150451,0.931003 1.395234,0.259508 3.332418,0.614159 4.304854,0.788114 0.972436,0.173954 2.079399,0.375137 2.459917,0.447073 1.808096,0.341818 4.367001,0.792327 5.688558,1.0015 0.803316,0.127148 1.564353,0.263433 1.691193,0.302856 0.277592,0.08628 5.2341,0.963313 6.534154,1.15619 0.507358,0.07527 2.029431,0.347547 3.382386,0.605052 1.352954,0.257506 3.082583,0.575962 3.84362,0.707677 0.761036,0.131718 1.937184,0.335185 2.613661,0.452151 0.676478,0.116966 1.92181,0.327859 2.767407,0.468651 2.114818,0.352119 4.10532,0.819659 4.293734,1.008535 l 0.156946,0.157331 -0.0055,0.651281 c -0.003,0.358205 -0.09494,2.662574 -0.204218,5.120818 l -0.198695,4.469537 -0.222024,0.479541 -0.222023,0.479543 -0.338517,0.145842 -0.338517,0.145844 z m 0.914746,-1.265542 0.183673,-0.221854 0.0696,-1.126713 c 0.03828,-0.61969 0.104284,-1.993647 0.146678,-3.053236 0.04239,-1.059588 0.1189,-2.595441 0.170018,-3.413005 l 0.09294,-1.48648 -0.289156,-0.152667 c -0.314193,-0.165885 -1.329099,-0.379071 -3.133436,-0.658192 -0.634197,-0.09811 -1.706567,-0.308395 -2.383044,-0.467304 -0.676478,-0.158909 -1.368329,-0.284213 -1.537448,-0.278452 -0.16912,0.0058 -1.033934,-0.127841 -1.92181,-0.296893 -1.961372,-0.373446 -3.471043,-0.641307 -8.071603,-1.43215 -1.944872,-0.334327 -4.193389,-0.739563 -4.996706,-0.900525 -0.803316,-0.160962 -1.944872,-0.36941 -2.536789,-0.46322 -1.546169,-0.245044 -2.626258,-0.452884 -3.766748,-0.724832 -0.549638,-0.131061 -1.241489,-0.254497 -1.537448,-0.274305 -0.836813,-0.05601 -1.988357,-0.248125 -2.99345,-0.499417 -0.504842,-0.126219 -1.404249,-0.293756 -1.998682,-0.372304 -1.223876,-0.16172 -1.416911,-0.197412 -1.852871,-0.342584 -0.170969,-0.05693 -0.932006,-0.2063 -1.691193,-0.331933 -3.366936,-0.557166 -6.835276,-1.149238 -7.683881,-1.311694 -1.458787,-0.279269 -3.683751,-0.59115 -3.753067,-0.526079 -0.119368,0.112056 -0.167401,1.070806 -0.250188,4.99383 l -0.08296,3.930976 0.200339,0.274651 0.200339,0.274652 1.381531,0.23375 c 0.759844,0.128564 1.519903,0.26204 1.689022,0.296614 0.169119,0.03457 1.055616,0.169429 1.969994,0.299679 0.914377,0.130249 1.79194,0.306258 1.950139,0.391131 0.158199,0.08487 0.517491,0.154315 0.798427,0.154315 0.280937,0 0.752484,0.07202 1.047885,0.160035 0.761602,0.226934 1.969694,0.47567 2.689519,0.553748 0.338239,0.03669 0.787942,0.130475 0.999341,0.208416 0.2114,0.07794 0.937844,0.216187 1.614321,0.307214 0.676477,0.09103 1.506699,0.231032 1.844938,0.311119 1.499056,0.354943 4.377609,0.919621 5.150451,1.010349 0.465078,0.0546 0.899866,0.13275 0.966198,0.173668 0.117481,0.07247 1.782473,0.353599 2.587108,0.436823 0.220847,0.02284 0.533152,0.112142 0.694012,0.198443 0.160859,0.0863 0.464463,0.161853 0.674674,0.167896 0.860124,0.02472 1.837984,0.194394 3.533972,0.613188 0.380518,0.09396 1.383703,0.28298 2.229299,0.420042 2.586362,0.419219 5.095182,0.895025 5.457941,1.035115 0.126839,0.04898 0.639843,0.125218 1.140007,0.169414 l 0.90939,0.08035 0.159136,0.159527 0.159137,0.159527 h 0.519351 c 0.79848,0 4.643201,0.698581 6.030178,1.095676 0.460777,0.131922 1.96438,0.361751 2.787018,0.426001 l 0.250227,0.01954 z m 8.509086,1.875687 0.249788,-0.189673 0.152633,-2.851256 c 0.08395,-1.568191 0.192213,-3.995611 0.240589,-5.394268 0.04838,-1.398656 0.127039,-3.003052 0.174808,-3.565323 l 0.08685,-1.02231 0.987888,-0.712412 0.987887,-0.712413 -0.06808,-1.270654 c -0.03745,-0.698861 -0.146082,-1.532743 -0.241416,-1.853073 l -0.173337,-0.582416 -0.414342,0.299666 c -0.22789,0.164814 -1.159649,1.020629 -2.07058,1.901809 l -1.656236,1.602144 -0.0769,0.212471 0.08418,1.005671 c -0.0048,0.372461 -0.0096,0.744923 -0.01433,1.117384 0,0 -0.179405,1.880262 -0.278273,4.041822 -0.09887,2.16156 -0.210195,4.450271 -0.247394,5.086024 -0.06911,1.181078 -0.105586,3.031511 -0.08617,4.370695 l 0.01086,0.748831 1.050891,-1.021522 c 0.577992,-0.561838 1.163298,-1.106876 1.30068,-1.211197 z m 3.486187,-3.195051 c 0.709017,-0.635753 1.843752,-1.676076 2.521631,-2.311829 1.770119,-1.660115 3.11529,-2.91019 4.16043,-3.866315 1.311772,-1.200047 1.392139,-1.274068 5.020649,-4.624172 0.880418,-0.812865 1.829415,-1.679801 2.108883,-1.926524 l 0.508124,-0.448586 c 0.615431,-0.556674 0.777686,-0.746543 1.202317,-1.168867 l 0.474152,-0.475314 c 0.260029,-0.278415 0.716585,-0.705298 1.066801,-1.034225 l 0.956672,-0.89852 -0.04227,-5.455269 c -0.04266,-5.504958 -0.07838,-8.448099 -0.117257,-9.661306 l -0.02119,-0.66123 -0.644766,0.584169 c -0.35462,0.321293 -1.202138,1.101534 -1.883374,1.733867 -0.681234,0.632333 -1.371328,1.256527 -1.533543,1.387097 -0.162214,0.130571 -0.513066,0.445465 -0.779672,0.699766 -0.846434,0.80737 -2.632958,2.367655 -3.038067,2.703669 -0.301329,0.287942 -0.666691,0.644342 -0.666691,0.644342 0,0 -3.325425,2.976243 -4.632529,4.222667 -0.167001,0.159248 -0.808887,0.740348 -1.426412,1.291334 -0.617527,0.550986 -1.415295,1.293508 -1.772818,1.650051 -0.331179,0.285851 -0.785487,0.738838 -0.785487,0.738838 l -0.581238,0.509482 -0.58124,0.509483 0.169791,0.415249 c 0.1489,0.364159 0.289738,1.161824 0.581784,3.295078 l 0.07776,0.568001 -0.188745,0.573301 -0.188743,0.573303 -0.904701,0.873766 -0.9047,0.873768 0.02568,0.527942 c 0.01413,0.290369 -0.01624,1.221492 -0.06749,2.069163 -0.05124,0.84767 -0.136221,2.928317 -0.188842,4.623658 -0.05262,1.695341 -0.13484,3.219803 -0.182714,3.387694 l -0.08704,0.305256 0.527866,-0.536439 c 0.290326,-0.295042 1.10797,-1.0566 1.816989,-1.692353 z M 17.531169,54.765485 c 0.09061,-0.19936 0.128698,-0.398611 0.08464,-0.44278 -0.04406,-0.04417 -0.66067,-0.177666 -1.370241,-0.296656 -0.709571,-0.118991 -1.519924,-0.265608 -1.800784,-0.325814 l -0.510655,-0.109465 0.108049,0.599425 c 0.03208,0.344821 0.122055,0.693111 0.44063,0.832137 0.632328,0.275946 1.476992,0.262262 1.59934,0.264221 l 1.077586,0.15143 z m 51.00433,-9.237063 C 67.54616,45.322187 65.557061,44.962295 63.923155,44.693901 62.068466,44.389242 57.554267,43.60166 55.082828,43.151552 51.650297,42.526404 49.233352,42.103869 47.626205,41.847973 46.062524,41.598995 42.081457,40.905306 37.86341,40.146834 c -1.691193,-0.304105 -4.458599,-0.789373 -6.149792,-1.078373 -3.184232,-0.54414 -5.992817,-1.045634 -7.456623,-1.331436 -0.465078,-0.0908 -1.191522,-0.21879 -1.61432,-0.284412 -3.022763,-0.469165 -4.022141,-0.635009 -4.193327,-0.695878 -0.10778,-0.03832 -1.261441,-0.244447 -2.563693,-0.458053 -1.302253,-0.213606 -2.869436,-0.494171 -3.48263,-0.623476 l -1.114897,-0.235101 -0.165029,0.180338 -0.16503,0.180338 0.159264,-0.08837 0.159265,-0.08837 1.531928,0.302531 c 0.842561,0.166392 2.535114,0.476332 3.761229,0.688755 1.226115,0.212422 2.817373,0.48996 3.53613,0.61675 0.718757,0.12679 1.721942,0.296284 2.2293,0.376653 0.507358,0.08037 1.302987,0.213417 1.768065,0.295664 0.465078,0.08225 1.641226,0.288993 2.613662,0.459435 0.972436,0.170441 3.947398,0.697659 6.611026,1.171593 2.663629,0.473936 5.811554,1.027344 6.995389,1.229799 1.183835,0.202455 3.190205,0.550779 4.458599,0.774054 1.268395,0.223274 2.700433,0.463961 3.182304,0.534859 0.481873,0.0709 1.24291,0.201185 1.691193,0.289529 0.448284,0.08834 1.610691,0.298865 2.583126,0.467825 0.972436,0.16896 2.944213,0.51688 4.381727,0.773157 1.437514,0.256275 3.478477,0.615526 4.535472,0.798335 1.056996,0.18281 3.167143,0.557556 4.689217,0.83277 1.522073,0.275214 2.974962,0.500526 3.228641,0.500694 l 0.461234,3.08e-4 -0.999341,-0.208322 z m 2.316646,-1.44999 c 0.470839,-0.466376 1.346222,-1.316103 1.945298,-1.888281 l 1.089227,-1.040323 -0.330978,6.17e-4 c -0.182036,3.08e-4 -1.126606,-0.140066 -2.099042,-0.311969 -2.507347,-0.443238 -5.19904,-0.897577 -5.919175,-0.999114 -0.338239,-0.04769 -0.926312,-0.155434 -1.306831,-0.239427 -0.380518,-0.08399 -2.179332,-0.390446 -3.997365,-0.681008 -4.72776,-0.755595 -8.529648,-1.414073 -9.685922,-1.67758 -0.549638,-0.125257 -1.310675,-0.26433 -1.691193,-0.309049 -0.380519,-0.04472 -1.868,-0.293052 -3.305514,-0.55185 -2.867991,-0.51633 -4.288443,-0.752468 -5.227323,-0.868997 -0.338239,-0.04198 -1.099275,-0.172454 -1.691193,-0.289945 -0.591917,-0.11749 -1.733472,-0.321017 -2.536789,-0.452283 -0.803317,-0.131265 -2.32539,-0.384102 -3.382386,-0.561862 -1.056995,-0.177758 -2.336921,-0.383443 -2.844279,-0.457078 -0.507358,-0.07364 -1.060839,-0.165143 -1.229958,-0.203353 -0.169119,-0.03821 -0.860971,-0.152997 -1.537448,-0.255086 -0.676477,-0.102087 -1.714255,-0.279389 -2.306172,-0.394005 -1.084913,-0.210076 -3.493242,-0.55603 -3.920493,-0.563174 -0.126839,-0.0021 -0.539094,-0.06908 -0.91612,-0.148787 -0.377027,-0.07971 -1.200611,-0.210403 -1.830186,-0.29042 L 16.98362,31.74997 16.123272,32.325746 c -0.473191,0.316676 -1.102496,0.70597 -1.398455,0.865096 -0.295959,0.159125 -0.814847,0.471855 -1.153086,0.694956 -0.338239,0.223101 -0.874865,0.543019 -1.192504,0.710929 l -0.577525,0.305292 0.05221,0.157004 0.05221,0.157004 0.679063,0.103552 c 1.11811,0.170505 6.161311,1.041735 6.905728,1.192987 0.380518,0.07731 1.418296,0.257835 2.306172,0.401158 0.887876,0.143321 2.625416,0.461536 3.861196,0.707145 1.235783,0.24561 2.41193,0.440971 2.613662,0.434135 0.201733,-0.0068 0.643527,0.05798 0.981765,0.144044 0.338239,0.08606 1.445201,0.298143 2.459917,0.471294 1.014716,0.173152 2.467604,0.426382 3.228641,0.562737 0.761037,0.136353 1.77322,0.302772 2.249297,0.369821 0.476077,0.06705 1.202521,0.197545 1.614321,0.289995 0.411799,0.09245 1.613541,0.31207 2.670536,0.488048 1.056996,0.175978 2.509884,0.424417 3.228641,0.552085 0.718757,0.12767 1.860312,0.33057 2.536789,0.450893 0.676477,0.120322 2.336921,0.399085 3.689876,0.619475 1.352954,0.220388 2.90962,0.49485 3.459258,0.609916 1.059813,0.221868 5.653259,1.039397 7.840985,1.395515 0.718757,0.117 2.655941,0.448173 4.304854,0.73594 l 2.998024,0.523213 0.230617,-0.170779 c 0.12684,-0.09393 0.61585,-0.552359 1.086688,-1.018735 z m 4.480936,-4.586143 c 0.531592,-0.487812 1.623789,-1.474884 2.427106,-2.193493 0.803317,-0.718611 1.741589,-1.585218 2.08505,-1.925797 0.343461,-0.340577 0.86235,-0.801454 1.153086,-1.024173 0.290736,-0.222718 0.951413,-0.812235 1.468171,-1.310036 0.516758,-0.497802 1.30815,-1.217192 1.758647,-1.598644 0.450498,-0.381452 0.961695,-0.835541 1.135995,-1.009089 0.174299,-0.173547 0.939575,-0.85949 1.700612,-1.524315 0.761036,-0.664826 1.452888,-1.288811 1.537448,-1.386632 0.08456,-0.09782 0.880189,-0.839963 1.768065,-1.649205 0.887876,-0.809242 1.854591,-1.690443 2.148255,-1.958224 0.293663,-0.267782 0.463997,-0.486876 0.378518,-0.486876 -0.301744,0 -5.357092,-0.665306 -8.292203,-1.091289 -3.234005,-0.469363 -4.33432,-0.61837 -6.149792,-0.832815 -1.099276,-0.129848 -2.344609,-0.304334 -2.767407,-0.387749 -0.422798,-0.08341 -1.322205,-0.218308 -1.998682,-0.299763 -0.676477,-0.08146 -2.129366,-0.284201 -3.228641,-0.450543 -1.099276,-0.166342 -2.310016,-0.34269 -2.690534,-0.391883 -3.44122,-0.444871 -7.478621,-1.007159 -8.994071,-1.252601 -0.761037,-0.123256 -1.971778,-0.293616 -2.690534,-0.378576 -1.257904,-0.148689 -3.549192,-0.46508 -7.456623,-1.02964 -1.014716,-0.14661 -2.369881,-0.269856 -3.011478,-0.273882 l -1.166539,-0.0073 -0.901012,0.599787 c -0.495557,0.329883 -1.838613,1.086158 -2.98457,1.680611 -1.145957,0.594451 -2.63704,1.389555 -3.313517,1.766898 -1.158144,0.646019 -2.693611,1.481145 -3.382386,1.839648 -0.169119,0.08803 -0.58423,0.310293 -0.922469,0.49393 -0.338238,0.183636 -1.272238,0.682997 -2.075554,1.109693 -0.803317,0.426696 -1.875687,1.003158 -2.383045,1.281029 -0.507358,0.277871 -1.752691,0.943014 -2.767406,1.478094 -1.014716,0.535082 -2.67516,1.425431 -3.689876,1.978553 -1.014715,0.553124 -2.149858,1.158416 -2.52254,1.345093 l -0.677602,0.339414 0.677602,0.106341 c 0.372682,0.05849 1.196491,0.199301 1.830689,0.312917 0.634197,0.113617 1.637382,0.283498 2.229299,0.377515 1.580631,0.251059 4.424356,0.735663 5.919175,1.008696 0.718757,0.131282 2.621349,0.442905 4.227982,0.692493 1.606634,0.249586 3.543818,0.564646 4.304855,0.70013 0.761037,0.135485 2.075555,0.345771 2.921151,0.4673 0.845597,0.121532 2.09093,0.323291 2.767407,0.448355 0.676477,0.125065 1.748847,0.303292 2.383044,0.396059 1.43225,0.209506 2.772759,0.442104 6.687899,1.160446 1.691193,0.310297 3.420822,0.621293 3.84362,0.691103 0.422799,0.06981 2.636724,0.448447 4.919834,0.841418 2.28311,0.392971 4.393258,0.751178 4.689217,0.796017 1.563257,0.236834 7.619485,1.322562 7.674428,1.375828 0.191533,0.18569 0.559559,-0.02669 1.429326,-0.824824 z m -22.347764,-7.261107 -1.636278,-0.271793 -1.361746,-0.525651 -1.361746,-0.525652 -0.702736,-0.700803 -0.702733,-0.700802 -0.15579,-0.615268 -0.15579,-0.615267 0.173238,-0.515783 0.173237,-0.515782 0.285138,-0.209009 c 0.156826,-0.114955 0.335963,-0.177522 0.398081,-0.139036 l 0.112942,0.06997 0.258186,-1.038171 0.258185,-1.038173 0.524654,-0.961205 0.524654,-0.961203 c 0.190661,-0.322108 0.334812,-0.542897 0.51742,-0.791814 0.186499,-0.254221 0.405064,-0.392077 0.47782,-0.651328 0.04672,-0.166464 -0.02961,-0.344519 -0.04441,-0.516779 -0.0148,-0.17226 -0.103569,-0.354321 -0.04441,-0.51678 0.08637,-0.237179 0.356531,-0.357406 0.534797,-0.536109 0.178265,-0.178703 0.318278,-0.406365 0.534796,-0.536108 0.338593,-0.202893 0.993218,-0.457644 1.375776,-0.36038 0.101578,0.02583 -0.252778,0.175495 -0.313153,0.192432 -0.988823,0.277402 -1.073721,0.641534 -1.073721,0.641534 -0.351032,0.209737 -0.573136,0.541985 -0.573136,0.625584 0,0.05066 -0.04427,0.127348 0,0.151996 0.05267,0.02933 0.102497,-0.0635 0.153745,-0.09525 0.05125,-0.03175 0.100572,-0.123659 0.153745,-0.09525 0.08202,0.04382 0.0065,0.185873 0.0097,0.278809 0.0032,0.09294 -0.08188,0.26268 0.0097,0.278809 0.114076,0.02009 0.08667,-0.214842 0.130001,-0.322263 0.04333,-0.107421 0.04851,-0.239944 0.13,-0.322264 0.121889,-0.12313 0.320022,-0.132883 0.480033,-0.199324 0.160011,-0.06644 0.310314,-0.164491 0.480034,-0.199323 0.46283,-0.09499 1.41734,-0.01599 1.41734,-0.01599 l 1.41734,-0.01599 1.076213,0.347912 c 1.225345,0.39612 1.385279,0.482513 1.488954,0.804296 l 0.07449,0.231183 0.07978,-0.417479 0.07978,-0.41748 -0.707755,-0.33628 C 57.092516,19.988966 56.4281,19.742197 56.005302,19.625542 l -0.768724,-0.212099 -1.14834,-0.006 c 0,0 -1.214332,-0.246418 -1.560678,-0.136201 -0.05975,0.01901 0.02722,-0.197737 0.125881,-0.219838 0.216678,-0.04854 0.738203,0.06194 0.738203,0.06194 l 0.768724,0.01667 c 0.422798,0.0092 1.25302,0.114793 1.844938,0.234723 l 1.076213,0.218055 0.802708,0.532986 c 0.441489,0.293143 0.918304,0.709839 1.059586,0.925994 l 0.256879,0.393007 -0.166369,0.366035 -0.166369,0.366035 0.194101,0.07467 0.1941,0.07467 0.335726,1.286858 c 0.184649,0.707771 0.371085,1.598954 0.4143,1.980406 0.04322,0.381451 0.106305,0.901613 0.140198,1.155914 0.03389,0.254301 0.06731,0.72654 0.07427,1.049419 l 0.01264,0.587052 0.147197,-0.09119 0.147197,-0.09119 0.237165,0.45975 c 0.441878,0.856593 0.20262,1.873076 -0.639609,2.71737 l -0.459466,0.460593 -0.830891,0.256697 -0.830892,0.256694 -1.691193,0.07918 -1.691193,0.07918 -1.636277,-0.271794 z m 5.36893,-2.47989 0.811504,-0.356435 0.331572,-0.466794 0.331574,-0.466793 -0.03402,-1.246227 -0.03402,-1.246226 -0.392183,-1.656811 -0.392184,-1.65681 h -0.198381 c -0.10911,0 -0.275163,0.09275 -0.369011,0.206101 l -0.170629,0.206101 -0.843113,0.202755 -0.843114,0.202757 -1.503435,-0.0942 -1.503435,-0.09419 -0.768724,-0.263917 c -0.422798,-0.145154 -1.061359,-0.419223 -1.419023,-0.609039 -0.454671,-0.241299 -0.413829,-0.410728 -0.650299,-0.345122 -0.413654,0.114764 -0.663907,1.103517 -0.663907,1.103517 -0.851308,1.415006 -1.248145,2.287833 -1.506345,3.313157 l -0.207136,0.822541 0.301546,0.564556 0.301544,0.564556 0.912691,0.485841 0.91269,0.485838 1.00912,0.263425 c 0.555015,0.144883 1.251267,0.321012 1.547226,0.391398 l 0.538107,0.127972 1.844938,-0.04076 1.844937,-0.04076 z m -1.418251,-6.720085 0.739396,-0.111151 0.516784,-0.305658 c 0.284231,-0.168113 0.481398,-0.341133 0.438146,-0.384491 -0.04325,-0.04336 -0.251327,0.0346 -0.46239,0.173228 -0.628483,0.412808 -0.647168,0.287655 -0.04025,-0.269622 0.568832,-0.522309 0.68603,-0.774192 0.433125,-0.930878 l -0.135025,-0.08366 -0.08743,0.421334 -0.08742,0.421334 -0.490223,0.274525 c -0.269624,0.15099 -0.524818,0.239849 -0.567097,0.197466 -0.04228,-0.04238 0.139617,-0.200598 0.404213,-0.351588 l 0.481086,-0.274525 9.23e-4,-0.192652 9.22e-4,-0.192653 -0.320965,0.321753 c -0.176532,0.176964 -0.554827,0.419706 -0.840658,0.539427 L 56.39954,22.50107 h -0.727293 -0.727292 l -1.252724,-0.383043 c 0,0 -0.86586,-0.18054 -1.252725,-0.38304 -0.156477,-0.08191 -0.416063,-0.328078 -0.416063,-0.328078 -0.228834,-0.180443 -0.45573,-0.288312 -0.504214,-0.239709 -0.04848,0.0486 0.165669,0.238493 0.475896,0.421981 0.605805,0.358311 0.661227,0.601495 0.06442,0.282655 -0.08523,-0.04553 -0.273082,-0.296812 -0.359094,-0.191842 -0.07016,0.08562 0.09342,0.113533 0.211005,0.256416 0.276518,0.336024 0.153554,0.323468 -0.552254,-0.05639 -0.162943,-0.08769 -0.456452,-0.494025 -0.58122,-0.312807 -0.08796,0.12776 0.352229,0.304098 0.352229,0.304098 0.193727,0.167254 0.747208,0.454916 1.229959,0.639248 0.292576,0.111716 0.574812,0.255632 0.877729,0.335149 0.426035,0.111836 1.30683,0.195734 1.30683,0.195734 0.718757,0.107652 1.384468,0.174398 1.479356,0.148322 0.09489,-0.02607 0.505253,-0.09742 0.911919,-0.158559 z m 0.133563,-1.187687 c 0.331664,-0.189331 0.631794,-0.431919 0.666955,-0.539084 l 0.06393,-0.194845 -0.590084,-0.25027 c -0.324547,-0.137648 -0.93601,-0.343904 -1.358809,-0.458344 l -0.768724,-0.208074 -1.076213,0.0022 c 0,0 -0.725548,-0.07348 -1.076214,0.0022 -0.216493,0.04672 -0.403902,0.181856 -0.605853,0.272785 -0.201951,0.09093 -0.583911,0.0524 -0.605853,0.272787 -0.02145,0.215433 -0.117464,-0.08413 0.528031,0.37819 0.620872,0.444687 1.367057,0.733732 2.221123,0.860383 0.338239,0.05016 0.643806,0.118233 0.67904,0.151277 0.03523,0.03304 0.346566,0.05894 0.691852,0.05754 l 0.627791,-0.0025 0.603027,-0.344239 z m 47.903461,-2.683181 c -0.2114,-0.03421 -1.1454,-0.24307 -2.07556,-0.464138 -0.93015,-0.221068 -2.07171,-0.450918 -2.53679,-0.510777 -0.465075,-0.05986 -1.641223,-0.250974 -2.613658,-0.424699 -0.972436,-0.173725 -2.35614,-0.38932 -3.074897,-0.4791 -4.189553,-0.523326 -5.211121,-0.665636 -5.76543,-0.803164 C 88.096429,16.277434 81.172152,15.386517 75.30027,14.727782 72.721201,14.438451 69.642461,14.090874 68.458626,13.955389 65.705841,13.640345 65.274338,13.6019 62.308834,13.407469 60.95588,13.318764 59.018695,13.145846 58.00398,13.023208 52.112442,12.31116 50.62701,12.214792 40.323327,11.876168 l -4.458599,-0.146529 -9.224689,0.10669 c -5.073578,0.05868 -10.400836,0.08306 -11.83835,0.05418 -2.536422,-0.05096 -13.561635,0.226826 -14.41357495,0.363152 l -0.42279822,0.06766 v -0.214487 c 0,-0.117967 0.08648146,-0.249468 0.19218101,-0.292223 l 0.19218101,-0.07774 -0.19218101,-0.01217 -0.19218101,-0.01217 v -0.219007 -0.219006 l 1.19152227,-0.0586 c 0.6553372,-0.03223 2.2638922,-0.07483 3.5745667,-0.09467 1.3106744,-0.01984 3.3516367,-0.08878 4.5354717,-0.153209 l 2.1524275,-0.117141 13.990777,0.007 c 7.694927,0.0038 15.582036,0.05685 17.526908,0.117803 4.077386,0.127789 9.035394,0.394373 9.638434,0.518242 0.22756,0.04674 1.507486,0.184917 2.844279,0.307055 1.336794,0.122137 3.087792,0.283877 3.891108,0.359422 0.803317,0.07554 2.002344,0.174141 2.664506,0.219101 l 1.203927,0.08175 0.198736,-0.489952 c 0.109303,-0.269474 0.276337,-0.940759 0.371187,-1.491745 0.09485,-0.5509855 0.480102,-2.6316317 0.856116,-4.6236578 0.376013,-1.992026 0.728776,-3.9859786 0.783918,-4.4310057 l 0.100257,-0.8091402 h 0.496476 0.496476 l -0.19253,1.1173841 c -0.821166,4.7658193 -1.065533,6.0820592 -1.723964,9.2858466 l -0.28507,1.387098 0.243953,0.104759 c 0.134175,0.05762 0.624471,0.108642 1.089549,0.113389 0.465078,0.0047 1.779597,0.116933 2.921152,0.249301 1.141555,0.132369 3.21711,0.36272 4.612344,0.511892 l 2.536789,0.271221 0.09603,-0.54822 c 0.05281,-0.301521 0.141027,-2.836931 0.196026,-5.6342444 0.055,-2.7973132 0.141249,-5.4799368 0.191663,-5.9613858 l 0.09166,-0.87536189 0.457958,0.0130527 0.457956,0.0130527 -0.08943,2.63471139 C 77.037305,4.747357 76.952727,7.7188651 76.89854,9.9016171 l -0.09852,3.9686399 0.518523,3.08e-4 c 0.285186,1.7e-4 1.689665,0.173557 3.121063,0.385305 1.431399,0.211748 2.664742,0.384997 2.740764,0.384997 h 0.138221 L 83.221575,12.6758 C 83.168217,11.59502 83.049144,9.9131643 82.956964,8.938343 82.864785,7.9635218 82.774462,6.8538438 82.756244,6.472392 82.738029,6.0909402 82.668913,4.6171492 82.602652,3.1973008 L 82.48218,0.6157583 h 0.46026 0.46026 l 0.103814,1.4256279 c 0.0571,0.7840954 0.144754,2.9167577 0.194792,4.7392497 0.09088,3.3099841 0.208673,4.5500811 0.208673,2.1968065 v -1.24525 l 0.377485,-2.7490768 c 0.207617,-1.5119924 0.454013,-3.1062545 0.54755,-3.5428049 l 0.170065,-0.79372801 h 0.539212 0.539214 l -0.08462,0.22104692 C 85.490939,2.194574 84.593184,8.844349 84.426991,12.510861 l -0.101916,2.248464 1.060847,0.157084 c 2.261939,0.334936 3.713865,0.53574 4.673849,0.646403 0.549638,0.06336 1.414453,0.190546 1.92181,0.282636 0.507358,0.09209 1.579728,0.246459 2.383045,0.343041 1.866846,0.224448 5.799394,0.870197 6.995384,1.148686 1.33286,0.310355 2.31849,0.509479 3.4977,0.706626 l 1.03778,0.173501 v 0.523605 0.523606 l -0.26906,-0.02099 c -0.14798,-0.01154 -0.44201,-0.04898 -0.65341,-0.08319 z"
       style="fill:#000000;stroke-width:0.15393326" />
    <rect
       ry="0"
       y="0.72546643"
       x="0.20670573"
       height="73.377884"
       width="104.7998"
       id="rect4790"
       style="fill:none;fill-opacity:1;stroke:#320000;stroke-width:0.26365182;stroke-opacity:1" />
    <path
       id="path4852"
       d="m 0.29758341,43.119603 c 0,-10.285621 0,-20.571242 0,-30.856863 C 12.770403,11.689615 25.274905,11.838239 37.760412,11.776058 c 13.233699,0.195632 26.394942,1.708817 39.536073,3.163274 9.217565,1.170472 18.476674,2.234019 27.567965,4.182299 0.0179,18.284946 0.0357,36.56989 0.0536,54.854836 -34.873494,0 -69.746989,0 -104.62048659,0 0,-10.285621 0,-20.571243 0,-30.856864 z M 68.377585,64.8473 c 2.409301,-2.291993 5.587262,-4.608076 8.069641,-7.260958 6.120841,-5.69822 12.258981,-11.378409 18.375166,-17.081918 -0.172934,-5.874953 0.01656,-11.811132 -0.522485,-17.636189 -9.014251,-1.678459 -18.191647,-2.507007 -27.262712,-3.903584 -7.319518,-0.934308 -14.601491,-2.28754 -21.944777,-2.955625 -3.81482,1.386722 -7.246075,3.82128 -10.921261,5.596035 -7.771854,4.424549 -15.969032,8.113566 -23.489356,12.956883 -1.3631076,1.890744 -0.522844,4.371631 -0.8217275,6.542571 0.034022,3.591899 -0.3819932,7.270946 -0.2120537,10.815024 0.7715462,2.080508 4.7169422,0.300032 3.8369822,3.313541 1.544899,1.641776 4.754673,1.045845 5.551568,-0.648534 14.973958,2.587022 29.900197,5.48853 44.849864,8.222046 0.572865,2.057787 2.115486,2.232144 4.491151,2.040708 z"
       style="fill:#016066;fill-opacity:1;stroke:none;stroke-width:0.10642938;stroke-opacity:1" />
    <path
       transform="scale(0.26458333)"
       id="path4854"
       d="m 279.22206,152.44343 c -0.78892,-0.3148 -15.72485,-3.00134 -31.27994,-5.62635 -23.73117,-4.00477 -35.90754,-6.11716 -50.88498,-8.82764 -7.85398,-1.42134 -16.36163,-2.91511 -18.90588,-3.31949 -2.54425,-0.40438 -7.79365,-1.26712 -11.66533,-1.9172 -3.87168,-0.65009 -9.16634,-1.50741 -11.7659,-1.90515 -2.59955,-0.39775 -8.4825,-1.3453 -13.07321,-2.10566 -4.59071,-0.76036 -10.4284,-1.7119 -12.97265,-2.11452 -8.25237,-1.30593 -15.58034,-2.5179 -20.71602,-3.4262 -2.76549,-0.4891 -9.915534,-1.70671 -15.888988,-2.7058 -5.973454,-0.99908 -12.987738,-2.17864 -15.587296,-2.62123 -2.599559,-0.44259 -4.749097,-0.80498 -4.776752,-0.80531 -0.02765,-3.4e-4 -0.05028,-0.0835 -0.05028,-0.18485 0,-0.10133 1.334977,-0.8827 2.966614,-1.73639 1.631638,-0.85368 5.772328,-3.06749 9.201533,-4.91957 3.429205,-1.85208 9.176392,-4.92882 12.771527,-6.83719 3.595132,-1.90838 9.523332,-5.077095 13.173772,-7.041591 3.65045,-1.964496 10.38404,-5.580385 14.96353,-8.035304 4.57949,-2.45492 11.1865,-6.025755 14.68223,-7.935187 3.49573,-1.909432 8.30177,-4.495035 10.68009,-5.745785 8.76226,-4.608042 12.62531,-6.797978 16.1263,-9.141912 l 1.6698,-1.117943 h 3.23241 c 4.50862,0 8.17306,0.384316 21.10747,2.21369 6.19469,0.876144 14.11404,1.961282 17.59856,2.411419 3.48451,0.450136 9.63898,1.309097 13.67659,1.908802 9.41616,1.398578 15.24626,2.217351 26.44812,3.714346 4.97788,0.665234 12.08267,1.658091 15.78843,2.206349 3.70575,0.548259 8.86464,1.277379 11.4642,1.620266 2.59956,0.342889 6.34272,0.893715 8.31815,1.22406 1.97542,0.330344 7.17957,1.053372 11.56476,1.606729 4.3852,0.553357 13.04148,1.723876 19.23618,2.601154 13.06758,1.850602 22.71491,3.157646 29.78221,4.034974 2.75404,0.341884 5.04721,0.661454 5.0959,0.710155 0.15288,0.152862 -0.92068,1.190437 -7.02211,6.786888 -3.26327,2.993189 -6.84367,6.31205 -7.95644,7.37524 -1.11277,1.0632 -4.05424,3.7342 -6.53661,5.93556 -2.48236,2.20136 -5.50897,4.91658 -6.72578,6.03383 -1.21682,1.11725 -3.61525,3.26229 -5.32985,4.76675 -1.7146,1.50447 -4.3393,3.88656 -5.83267,5.29353 -1.49336,1.40697 -3.80129,3.47215 -5.12872,4.58929 -1.32744,1.11713 -4.22366,3.72051 -6.43605,5.78529 -7.30768,6.8201 -17.47834,15.90958 -18.68564,16.6993 -1.24459,0.8141 -1.51255,0.87774 -2.32728,0.55265 z m -64.4658,-30.03539 4.82704,-0.26231 2.91633,-0.92501 2.91633,-0.925 1.67068,-1.71739 c 1.26488,-1.30024 1.85111,-2.09524 2.41352,-3.27301 0.71107,-1.48911 0.74276,-1.64593 0.74095,-3.66746 -0.002,-2.04764 -0.0249,-2.15636 -0.76034,-3.57711 -0.7391,-1.4279 -0.7697,-1.45741 -1.19934,-1.15648 -0.24249,0.16985 -0.51126,0.30881 -0.59727,0.30881 -0.086,0 -0.15648,-0.88244 -0.15661,-1.96098 -2e-4,-2.20826 -0.41186,-6.163033 -1.03069,-9.903628 -0.32914,-1.989496 -1.9615,-8.968816 -2.50243,-10.699404 -0.0584,-0.18675 -0.41858,-0.442661 -0.80047,-0.568694 -0.38188,-0.126033 -0.69433,-0.269372 -0.69433,-0.318532 0,-0.04916 0.27335,-0.692237 0.60744,-1.42906 l 0.60744,-1.339678 -0.70171,-1.056857 c -0.82611,-1.2442 -2.39861,-2.595014 -5.24058,-4.50177 l -2.0608,-1.382643 -3.1049,-0.609362 c -5.01216,-0.983677 -13.03785,-1.657959 -14.63026,-1.229168 -2.02524,0.545342 -2.96579,1.143199 -5.05008,3.210068 l -2.05444,2.037279 0.12607,0.847649 c 0.0694,0.466206 0.1824,1.391544 0.25122,2.056306 0.12359,1.193645 0.11479,1.221124 -0.70794,2.21239 -1.39776,1.684089 -2.88192,4.04576 -4.99143,7.942594 -2.01246,3.717548 -2.01509,3.724259 -2.96916,7.587453 -0.83499,3.381007 -0.99662,3.844287 -1.28702,3.688877 -0.40847,-0.21861 -1.29984,0.13183 -2.14294,0.8425 -0.45813,0.38618 -0.75516,0.96905 -1.19472,2.34447 l -0.585,1.83053 0.58213,2.42265 0.58213,2.42265 2.62386,2.55791 2.62386,2.55791 5.12872,1.97991 5.12873,1.9799 5.63153,0.9617 c 6.41687,1.0958 7.27568,1.13634 15.08448,0.71199 z"
       style="fill:#29414b;fill-opacity:1;stroke:none;stroke-width:0.2011264;stroke-opacity:1" />
    <path
       transform="scale(0.26458333)"
       id="path4856"
       d="m 278.17896,222.1763 c 0.26966,-0.70273 0.50969,-4.81579 0.91271,-15.63996 0.22653,-6.08407 0.49975,-12.55532 0.60715,-14.38054 0.10739,-1.82522 0.19614,-4.96181 0.19721,-6.9702 l 0.002,-3.65163 3.43677,-3.32695 3.43678,-3.32695 0.69177,-2.13333 0.69177,-2.13333 -0.31776,-2.3523 c -0.83071,-6.14959 -1.57322,-10.31729 -2.14909,-12.06275 -0.33869,-1.02659 -0.58083,-1.88971 -0.5381,-1.91806 0.38779,-0.25721 4.11788,-3.62927 6.71488,-6.07034 1.76991,-1.66364 5.66171,-5.2529 8.64843,-7.97613 2.98673,-2.72322 6.82955,-6.24002 8.53961,-7.8151 5.20937,-4.79821 14.93612,-13.61291 18.27374,-16.56028 1.73497,-1.53211 4.51209,-4.02473 6.17138,-5.53916 1.6593,-1.51443 4.3745,-3.96703 6.0338,-5.45022 1.65929,-1.48319 4.69127,-4.24068 6.73773,-6.12775 7.07163,-6.520839 7.85043,-7.209259 7.99369,-7.066002 0.20978,0.209783 0.41908,12.755592 0.62607,37.527922 l 0.18234,21.82221 -2.13838,2.00105 c -1.17611,1.10058 -4.35579,4.17905 -7.06597,6.84105 -2.71018,2.66201 -6.23982,6.01536 -7.84366,7.45189 -1.60383,1.43654 -5.8124,5.28307 -9.35237,8.54785 -3.53998,3.26477 -9.83033,9.05704 -13.97856,12.8717 -4.14824,3.81467 -10.34796,9.55457 -13.77716,12.75534 -3.42921,3.20077 -9.2669,8.5988 -12.97266,11.99562 -3.70575,3.39681 -7.36885,6.81951 -8.14022,7.60598 -1.39701,1.42437 -1.87889,1.74497 -1.62385,1.08037 z"
       style="fill:#192732;fill-opacity:1;stroke:none;stroke-width:0.2011264;stroke-opacity:1" />
    <path
       transform="scale(0.26458333)"
       id="path4858"
       d="m 239.16988,220.09301 c -2.99602,-0.31091 -7.23026,-0.98371 -9.45294,-1.50203 -6.07667,-1.41704 -8.43677,-1.92107 -12.10021,-2.58414 -5.91239,-1.07013 -9.21699,-1.52322 -11.12031,-1.52469 -1.63017,-10e-4 -1.72659,-0.0271 -2.34737,-0.62877 -0.62888,-0.60954 -0.73257,-0.63571 -3.62985,-0.91633 -1.66222,-0.16099 -4.27572,-0.59041 -5.90391,-0.97006 -3.13675,-0.7314 -11.29246,-2.25366 -18.29741,-3.41522 -5.36144,-0.88903 -7.51825,-1.31059 -12.36927,-2.41766 -4.09775,-0.93516 -6.85094,-1.39908 -10.05632,-1.69454 -1.27896,-0.11789 -2.50026,-0.37145 -3.35426,-0.69638 -0.84655,-0.32209 -2.66808,-0.70244 -4.9276,-1.02891 -1.97153,-0.28486 -4.44441,-0.7035 -5.4953,-0.93031 -2.63715,-0.56918 -4.35305,-0.88676 -6.93886,-1.28426 -2.9671,-0.45611 -10.53447,-1.93126 -15.51303,-3.02404 -2.22685,-0.48879 -5.21358,-1.0715 -6.63717,-1.29489 -1.42359,-0.22341 -3.49342,-0.54651 -4.59961,-0.71802 -1.1062,-0.17151 -3.05209,-0.57274 -4.32422,-0.89164 -1.27212,-0.31889 -3.08226,-0.68091 -4.022526,-0.80448 -2.383316,-0.31321 -6.321049,-1.1132 -8.993544,-1.82712 -1.240695,-0.33143 -3.22503,-0.68776 -4.409634,-0.79183 -1.184604,-0.10408 -2.703684,-0.37048 -3.37573,-0.59201 -1.730254,-0.57033 -3.375508,-0.88855 -8.867869,-1.7152 -2.65313,-0.39932 -7.358065,-1.16513 -10.455412,-1.7018 -3.097346,-0.53668 -5.993566,-1.03681 -6.436044,-1.11141 -0.68327,-0.1152 -0.919183,-0.29975 -1.565481,-1.22468 l -0.760975,-1.08903 0.203211,-9.20407 c 0.429677,-19.46149 0.62485,-23.88198 1.074273,-24.3314 0.209363,-0.20936 0.741308,-0.201 2.841451,0.0447 2.92464,0.34211 8.524823,1.23102 13.292,2.10983 1.769913,0.32627 9.417744,1.63599 16.995181,2.91048 7.577437,1.2745 14.861119,2.59225 16.185969,2.92835 1.32484,0.33609 4.24472,0.88178 6.48862,1.21264 4.05308,0.59763 6.88972,1.12544 9.07092,1.68783 2.081,0.53655 6.5305,1.28848 9.58597,1.61996 1.65929,0.18001 4.28399,0.59897 5.83266,0.93101 1.54867,0.33204 3.81942,0.82067 5.04609,1.08585 1.22668,0.26517 4.89221,0.94131 8.14562,1.50252 3.25342,0.56121 8.49475,1.50878 11.6474,2.10572 6.07902,1.15102 14.06659,2.5709 31.07403,5.52375 5.75222,0.99871 12.85701,2.26298 15.78842,2.8095 2.93142,0.54651 6.37068,1.13963 7.64281,1.31804 1.27212,0.17842 2.9465,0.41416 3.72083,0.52389 0.77434,0.10972 3.03701,0.55578 5.02816,0.99123 1.99116,0.43546 5.79244,1.16013 8.44731,1.61036 8.31621,1.41035 10.54449,1.90068 12.01731,2.64436 0.41482,0.20946 0.75422,0.49338 0.75422,0.63093 0,0.13755 -0.13251,2.42101 -0.29447,5.07436 -0.16195,2.65334 -0.4809,8.94232 -0.70878,13.97551 -0.22787,5.03319 -0.50194,10.49276 -0.60904,12.13239 l -0.19472,2.98114 -0.72974,0.89055 c -0.40135,0.48979 -0.74145,0.8785 -0.75578,0.86378 -0.0143,-0.0147 -0.75011,-0.10189 -1.63507,-0.19373 z"
       style="fill:#3b0e0b;fill-opacity:1;stroke:none;stroke-width:0.2011264;stroke-opacity:1" />
    <path
       transform="scale(0.26458333)"
       id="path4860"
       d="m 63.888226,209.44365 c -0.497788,-0.0879 -2.081658,-0.26379 -3.519712,-0.39091 -4.413635,-0.39014 -6.185345,-0.95204 -6.809883,-2.15976 -0.289949,-0.5607 -0.985799,-4.09221 -0.835873,-4.24213 0.04282,-0.0428 1.871132,0.25271 4.062927,0.65672 2.191795,0.40401 4.980658,0.91598 6.197472,1.13771 1.216815,0.22172 2.560757,0.49467 2.986537,0.60655 0.757368,0.19901 0.771177,0.21925 0.637114,0.93387 -0.109105,0.58158 -1.654707,3.74228 -1.781411,3.64292 -0.01766,-0.0138 -0.439383,-0.0971 -0.937171,-0.18497 z"
       style="fill:#121317;fill-opacity:1;stroke:none;stroke-width:0.2011264;stroke-opacity:1" />
    <path
       transform="scale(0.26458333)"
       id="path4862"
       d="m 252.14254,244.14191 c -2.88708,-0.29276 -6.7207,-0.96453 -7.48085,-1.31088 -0.37309,-0.16999 -0.55269,-0.4419 -0.6398,-0.96864 -0.18548,-1.12154 -0.14902,-2.11337 0.10442,-2.84038 l 0.22995,-0.65964 1.73103,0.10809 c 0.95206,0.0594 3.76743,0.4753 6.25637,0.92413 2.48894,0.44882 4.79687,0.8419 5.12872,0.87351 0.59004,0.0562 0.60459,0.0842 0.65771,1.26423 0.0796,1.76921 -0.37407,2.42719 -1.79843,2.60815 -0.58942,0.0749 -1.20743,0.1632 -1.37336,0.19626 -0.16592,0.0331 -1.43302,-0.0546 -2.81576,-0.19483 z"
       style="fill:#121317;fill-opacity:1;stroke:none;stroke-width:0.2011264;stroke-opacity:1" />
    <path
       transform="scale(0.26458333)"
       id="path4864"
       d="m 259.58421,236.46277 c -3.69966,-0.29306 -10.96646,-1.44843 -18.70475,-2.97393 -3.04204,-0.59969 -7.1601,-1.37033 -9.15125,-1.71252 -4.4903,-0.77169 -9.99936,-1.78514 -15.37469,-2.82833 -2.26138,-0.43887 -6.01742,-1.11655 -8.34674,-1.50597 -5.18987,-0.86764 -20.54362,-3.67329 -29.7782,-5.44147 -14.33098,-2.74402 -17.9436,-3.40118 -36.90669,-6.7136 -11.26183,-1.96719 -17.57538,-3.1501 -20.41433,-3.82484 -1.32743,-0.31549 -4.04264,-0.85617 -6.03379,-1.2015 -1.99115,-0.34532 -7.28581,-1.29731 -11.7659,-2.11551 -4.480087,-0.81821 -10.001006,-1.81347 -12.268707,-2.21168 -4.047727,-0.7108 -14.844125,-2.74363 -18.805318,-3.54082 -2.82691,-0.56891 -5.048105,-0.92668 -7.843929,-1.26342 -1.327435,-0.15988 -3.680613,-0.56532 -5.229287,-0.90096 -3.095865,-0.67097 -14.500181,-2.90672 -16.625458,-3.25933 l -1.339851,-0.22229 -0.752959,-1.21989 -0.752959,-1.21989 0.134386,-5.14832 c 0.07391,-2.83157 0.357606,-13.74647 0.630431,-24.25533 0.47913,-18.45549 0.826135,-27.96514 1.032633,-28.29926 0.241488,-0.39074 1.767868,-0.19708 9.829848,1.24717 2.986727,0.53505 7.274819,1.25733 9.529095,1.60508 2.254275,0.34774 5.73879,0.98382 7.743366,1.41352 2.004577,0.42969 6.495651,1.24541 9.980166,1.81271 10.782627,1.75548 19.251523,3.19644 23.028973,3.91833 1.99115,0.38051 6.10921,1.10621 9.15125,1.61266 3.04204,0.50645 9.24176,1.60047 13.77716,2.43116 4.5354,0.83069 11.86646,2.13407 16.29124,2.89641 4.42478,0.76233 10.80551,1.88647 14.17941,2.49807 3.37389,0.61161 9.48311,1.65134 13.57603,2.31051 4.09292,0.65917 11.51449,1.92596 16.49236,2.81509 4.97788,0.88912 14.43585,2.52117 21.01771,3.62677 6.58186,1.10559 14.77274,2.55631 18.20194,3.22381 3.42921,0.66751 9.76469,1.8052 14.07885,2.5282 8.0738,1.35309 21.95063,3.76632 23.73292,4.12724 0.83111,0.16831 1.11033,0.34471 1.60901,1.01645 0.57606,0.77602 0.60078,0.89174 0.54599,2.55669 -0.10422,3.16758 -0.44736,9.63475 -1.15432,21.75595 -0.70577,12.10084 -1.17693,22.53416 -1.42826,31.62713 -0.13518,4.89047 -0.14499,4.97726 -0.55895,4.94274 -0.23174,-0.0193 -0.82864,-0.0674 -1.32643,-0.10683 z m -16.96439,-12.44975 1.23755,-0.52528 0.82249,-1.83853 0.82247,-1.83853 0.30197,-6.73773 c 0.43232,-9.64699 0.86961,-19.95756 1.11627,-26.32092 0.19521,-5.03587 0.18488,-5.5358 -0.12132,-5.87416 -0.9678,-1.06939 -7.66189,-2.56552 -23.31723,-5.21139 -10.77372,-1.82084 -16.71629,-2.87623 -26.74104,-4.74917 -4.4296,-0.82759 -12.03613,-2.175 -16.90339,-2.99424 -9.60936,-1.61741 -17.71553,-3.05938 -21.52052,-3.8282 -1.32743,-0.26821 -5.67176,-1.03657 -9.65407,-1.70746 -7.69565,-1.29647 -8.16239,-1.38042 -36.90669,-6.63769 -10.23231,-1.87147 -23.220044,-4.22361 -28.861639,-5.22699 -5.641596,-1.00338 -14.194496,-2.54352 -19.006445,-3.42253 l -8.748998,-1.59821 -1.405173,0.36035 c -1.370326,0.3514 -1.421521,0.3879 -2.064445,1.47155 l -0.659274,1.11121 -0.5663,17.38029 c -0.566044,17.3724 -0.566123,17.38093 -0.173909,18.78817 0.516629,1.85364 1.347407,3.46031 2.224452,4.30196 0.648031,0.62187 0.909909,0.71433 2.984824,1.05387 15.92593,2.60613 20.633203,3.42525 26.999401,4.69818 4.10041,0.81989 9.446442,1.81869 11.880071,2.21955 2.43363,0.40086 8.769115,1.57683 14.078845,2.61326 5.30974,1.03643 13.86264,2.66231 19.00645,3.61306 14.65549,2.70884 17.48109,3.23973 25.74418,4.83693 4.25885,0.8232 15.07442,2.81243 24.0346,4.4205 13.89876,2.49439 21.95551,3.98543 37.00726,6.84886 1.43805,0.27358 4.42478,0.94533 6.63717,1.49278 4.15869,1.02907 9.09238,2.00924 15.18504,3.01681 1.93584,0.32014 3.74598,0.62054 4.02253,0.66756 1.03061,0.17523 1.33635,0.12911 2.54487,-0.38386 z"
       style="fill:#4b3e10;fill-opacity:1;stroke:none;stroke-width:0.2011264;stroke-opacity:1" />
    <path
       transform="scale(0.26458333)"
       id="path4866"
       d="m 254.45549,169.70118 c -3.9823,-0.70632 -12.85198,-2.23724 -19.71039,-3.40205 -10.74504,-1.8249 -21.4007,-3.72863 -31.37572,-5.60554 -1.43805,-0.27059 -7.9998,-1.40226 -14.58166,-2.51482 -6.58186,-1.11256 -15.85882,-2.70257 -20.61546,-3.53335 -4.75664,-0.83078 -10.7715,-1.87836 -13.36636,-2.32796 -2.59486,-0.4496 -5.80786,-1.03993 -7.13999,-1.31184 -1.33213,-0.2719 -5.6803,-1.03286 -9.66261,-1.69102 -9.27066,-1.53216 -22.40598,-3.8534 -25.64367,-4.53169 -1.38271,-0.28967 -3.19282,-0.61547 -4.02247,-0.724 -4.33589,-0.56719 -7.67449,-1.11856 -13.348059,-2.20443 -3.44397,-0.65915 -9.384252,-1.73743 -13.200625,-2.39618 -3.816374,-0.65875 -10.46863,-1.82801 -14.782791,-2.59836 -4.314161,-0.77034 -11.032772,-1.92579 -14.930246,-2.56768 L 44.989123,133.1252 44.7837,132.53949 c -0.112982,-0.32214 -0.176777,-0.61435 -0.141767,-0.64936 0.03501,-0.035 0.974521,-0.5587 2.087803,-1.16374 1.113282,-0.60505 3.024512,-1.73186 4.247178,-2.50401 1.222665,-0.77216 3.202408,-1.9665 4.399429,-2.65409 1.197021,-0.68759 3.679478,-2.23419 5.516571,-3.43689 l 3.34017,-2.18673 3.799818,0.50869 c 2.089898,0.27979 5.29318,0.77122 7.118402,1.09207 1.825222,0.32085 3.952134,0.63932 4.726471,0.70773 2.397105,0.21175 9.591673,1.2883 15.486732,2.31734 6.684793,1.16689 12.477403,2.13022 20.012073,3.32807 9.19251,1.46141 24.73991,4.07928 29.86727,5.02906 2.65487,0.49177 6.39914,1.12242 8.32059,1.40143 4.1602,0.60411 8.12716,1.26775 18.63035,3.11673 4.31416,0.75946 9.38255,1.61622 11.26308,1.9039 1.88053,0.28768 5.18403,0.87934 7.34111,1.31481 7.27159,1.46797 14.59536,2.73859 37.61064,6.52517 7.02434,1.15568 13.22406,2.20348 13.77716,2.32845 0.5531,0.12496 5.8025,1.03424 11.66533,2.02062 5.86283,0.98637 13.2844,2.23664 16.49236,2.77837 3.20797,0.54174 6.50023,1.06356 7.31614,1.15961 l 1.48347,0.17464 -7.44522,7.20304 c -4.09485,3.96167 -7.74411,7.42355 -8.10942,7.69308 -0.39829,0.29385 -0.91029,0.47961 -1.27882,0.46398 -0.33801,-0.0143 -3.87283,-0.60396 -7.85513,-1.31028 z"
       style="fill:#4b3e10;fill-opacity:1;stroke:none;stroke-width:0.2011264;stroke-opacity:1" />
    <path
       transform="scale(0.26458333)"
       id="path4868"
       d="m 264.8135,227.80676 c 0,-7.19392 1.07729,-31.71463 1.75185,-39.87461 0.20203,-2.44387 0.35086,-6.45279 0.36544,-9.84332 l 0.0246,-5.72022 3.51233,-3.43103 c 4.98186,-4.86656 9.51498,-9.06146 11.03796,-10.21442 l 1.30601,-0.9887 0.35448,1.17084 c 0.70336,2.32317 0.98202,4.55432 1.44451,11.56557 l 0.0886,1.34404 -3.55715,2.55577 c -1.95644,1.40567 -3.65571,2.67623 -3.77616,2.82346 -0.32631,0.39884 -0.63127,5.09012 -1.18834,18.28025 -0.51235,12.13106 -0.97112,21.72397 -1.30209,27.22635 -0.17416,2.89544 -0.21525,3.11136 -0.64895,3.40983 -0.59566,0.40994 -2.13049,1.83283 -5.95025,5.51629 -1.69201,1.63164 -3.16335,2.96661 -3.26964,2.96661 -0.11977,0 -0.19325,-2.58066 -0.19325,-6.78671 z"
       style="fill:#4b3e10;fill-opacity:1;stroke:none;stroke-width:0.2011264;stroke-opacity:1" />
    <path
       transform="scale(0.26458333)"
       id="path4870"
       d="m 216.23773,165.21748 c -3.5223,-0.63264 -10.69036,-1.90212 -15.86385,-2.80952 -7.47065,-1.31031 -9.37736,-1.65304 -12.98997,-2.33497 -1.81951,-0.34345 -4.37666,-0.77782 -6.67013,-1.13302 -1.5677,-0.2428 -7.04672,-1.16092 -9.89332,-1.65782 -3.05066,-0.53253 -12.06452,-2.10272 -12.85911,-2.24003 -0.38716,-0.0669 -2.34437,-0.40471 -4.34935,-0.75068 -3.38741,-0.58452 -6.4996,-1.12575 -10.43344,-1.81444 -2.65925,-0.46555 -11.73764,-2.06712 -13.67659,-2.41275 -0.99558,-0.17748 -3.22431,-0.57359 -4.95274,-0.88025 -2.75842,-0.4894 -8.46482,-1.50267 -11.95445,-2.12272 l -1.16905,-0.20772 v -0.3181 c 0,-0.36967 -0.0264,-0.35867 0.58526,-0.24398 0.21738,0.0408 3.67611,0.6395 7.68607,1.33051 10.84974,1.86967 13.19016,2.28078 26.92579,4.72975 16.57507,2.95522 24.31769,4.30516 31.14946,5.43096 10.89995,1.7962 13.96265,2.32615 25.74417,4.45463 6.31895,1.14159 13.3268,2.39759 14.44339,2.58865 l 0.66623,0.11399 v 0.34305 c 0,0.29532 -0.0122,0.34226 -0.088,0.33744 -0.0484,-0.003 -1.08357,-0.18442 -2.30038,-0.40298 z m 2.40487,-18.72357 c 0,-0.19358 0.009,-0.26661 0.0202,-0.16229 0.0109,0.10432 0.0107,0.26271 -5e-4,0.35197 -0.0111,0.0893 -0.02,0.004 -0.0198,-0.18968 z"
       style="fill:#7b662d;fill-opacity:1;stroke:none;stroke-width:0.0502816;stroke-opacity:1" />
    <path
       transform="scale(0.26458333)"
       id="path4872"
       d="m 260.2593,172.80623 c -2.05019,-0.24623 -6.08705,-0.88604 -10.20355,-1.61719 -1.38295,-0.24563 -4.89456,-0.87537 -5.83151,-1.04578 -1.00765,-0.18325 -5.56346,-0.99325 -7.98198,-1.41915 -2.69424,-0.47445 -3.13468,-0.55153 -7.83976,-1.37212 -1.67195,-0.2916 -4.54386,-0.79608 -6.38202,-1.12107 -1.83817,-0.32499 -3.43812,-0.60662 -3.55545,-0.62585 -0.11733,-0.0192 -3.04524,-0.5373 -6.50647,-1.15128 -3.46122,-0.61397 -8.66906,-1.5335 -11.57297,-2.04339 -7.07672,-1.24258 -9.82496,-1.73581 -12.44406,-2.23333 l -0.69332,-0.1317 -0.0102,-0.34755 c -0.0101,-0.34592 -0.01,-0.34747 0.0711,-0.32918 0.0447,0.0101 0.2813,0.0513 0.52573,0.0916 2.00655,0.33063 9.86995,1.72228 15.98173,2.82841 5.1068,0.92425 9.5133,1.71661 11.83964,2.12895 1.3884,0.24609 2.78036,0.49451 3.09324,0.55205 0.61299,0.11272 5.37444,0.94836 8.69306,1.52564 5.57366,0.96956 9.35271,1.61508 13.84846,2.36553 6.49101,1.08351 12.05167,2.07566 15.87507,2.83248 1.8359,0.36341 5.38251,1.09982 5.45761,1.13321 0.11869,0.0528 -1.90024,0.0354 -2.36437,-0.0203 z"
       style="fill:#7b662d;fill-opacity:1;stroke:none;stroke-width:0.03555446;stroke-opacity:1" />
    <path
       transform="scale(0.26458333)"
       id="path4878"
       d="m 157.76773,155.02548 c -2.5617,-0.44656 -6.41758,-1.11698 -8.56862,-1.48981 -4.73155,-0.8201 -17.7427,-3.11594 -29.4391,-5.19457 -20.577817,-3.657 -29.286207,-5.1873 -32.923426,-5.78554 -0.938638,-0.15438 -2.698583,-0.4439 -3.910991,-0.64338 -2.835126,-0.46646 -7.434254,-1.26129 -19.981606,-3.45326 -6.691561,-1.16899 -11.693816,-2.09598 -17.268462,-3.20008 l -3.046678,-0.60342 -0.460805,0.2577 c -0.253443,0.14173 -0.478441,0.24006 -0.499996,0.2185 -0.04433,-0.0443 0.409468,-0.59985 0.782704,-0.95815 l 0.247642,-0.23773 2.549698,0.53665 c 3.868354,0.81419 7.314213,1.44478 14.424887,2.63973 5.356717,0.9002 7.895066,1.3461 9.103386,1.59914 0.546744,0.1145 1.458066,0.30546 2.02516,0.42437 1.075526,0.22552 5.492113,0.94994 11.732971,1.92448 4.536318,0.70837 6.186687,0.99137 9.983805,1.71199 6.537195,1.24062 12.550201,2.31236 26.103971,4.65268 12.41991,2.14455 14.81594,2.56575 29.93686,5.26264 3.20701,0.57199 7.68687,1.36661 9.95525,1.76582 l 4.12431,0.72584 0.0217,0.33573 c 0.0185,0.28612 0.003,0.33476 -0.10667,0.32917 -0.0706,-0.004 -2.22427,-0.37194 -4.78597,-0.8185 z"
       style="fill:#786529;fill-opacity:1;stroke:none;stroke-width:0.07110892;stroke-opacity:1" />
    <path
       transform="scale(0.26458333)"
       id="path4880"
       d="m 197.71888,112.70532 c -5.14704,-1.30092 -6.06032,-1.62698 -9.24416,-3.30029 l -3.53286,-1.85676 -1.17525,-2.22482 -1.17526,-2.22481 0.66757,-2.49448 c 0.95493,-3.568284 2.15429,-6.519735 3.97449,-9.780705 0.87321,-1.564396 1.84474,-3.518332 2.15896,-4.34208 0.64218,-1.683518 1.78731,-3.195465 2.42021,-3.195465 0.23119,0 0.83437,0.31579 1.34039,0.701755 1.03065,0.786112 3.19503,1.79032 6.57954,3.052711 2.0418,0.761569 2.87262,0.888428 8.08982,1.235242 l 5.81432,0.386509 3.1454,-0.727917 c 2.4976,-0.578003 3.32393,-0.897301 4.01225,-1.550366 0.47676,-0.452347 1.14381,-0.822449 1.48232,-0.822449 0.71278,0 0.61764,-0.292162 2.47739,7.608343 1.24783,5.301017 1.2888,5.620208 1.2888,10.040252 v 4.56518 l -1.18764,1.68408 c -1.11402,1.57968 -1.37411,1.76756 -4.19543,3.03066 l -3.00778,1.34658 -4.12432,0.0864 c -2.26837,0.0475 -5.46827,0.11781 -7.11089,0.15618 -2.77102,0.0647 -3.39877,-0.0344 -8.69787,-1.37376 z"
       style="fill:#af541a;fill-opacity:1;stroke:none;stroke-width:0.28443569;stroke-opacity:1" />
    <path
       transform="scale(0.26458333)"
       id="path4882"
       d="m 210.6684,87.656565 c -1.13192,-0.08103 -7.7959,-0.950333 -8.73905,-1.139992 -1.61875,-0.325515 -6.05802,-2.163023 -7.75332,-3.209259 -0.38716,-0.238938 -0.97546,-0.587863 -1.30732,-0.77539 -0.96906,-0.5476 -1.26599,-1.026445 -0.74001,-1.193386 0.23168,-0.07353 0.49801,0.08818 1.38647,0.841864 0.58777,0.498599 2.66228,1.623049 2.99896,1.625523 0.33181,0.0024 -0.14203,-0.782133 -0.78391,-1.297958 -0.42169,-0.338884 -0.4995,-0.551241 -0.23864,-0.651342 0.0875,-0.03357 0.17624,-0.06104 0.19721,-0.06104 0.021,0 0.29991,0.213205 0.61983,0.473789 0.75363,0.613835 2.04079,1.152432 2.04079,0.853942 0,-0.175371 -0.80771,-0.840493 -1.79144,-1.475191 -1.56549,-1.010049 -2.20308,-1.662678 -1.62437,-1.662678 0.35285,0 1.15881,0.473572 1.97546,1.160751 0.43268,0.364083 0.97501,0.774224 1.20518,0.911423 0.5814,0.346563 1.84125,0.771394 3.709,1.250702 0.87354,0.224169 2.5407,0.699564 3.7048,1.056433 l 2.11655,0.648851 h 2.77629 2.7763 l 1.28637,-0.548494 c 2.03583,-0.868054 3.49671,-1.839809 4.46175,-2.967907 0.23814,-0.27837 0.4777,-0.506127 0.53236,-0.506127 0.059,0 0.0874,0.294309 0.0699,0.724479 l -0.0296,0.724479 -1.25704,0.721218 c -1.20626,0.692082 -2.11183,1.360027 -2.11183,1.557679 0,0.29018 1.1191,-0.128434 2.73197,-1.021934 0.71449,-0.395814 1.32516,-0.693582 1.35703,-0.661706 0.0319,0.03187 -0.4452,0.550847 -1.06017,1.153272 -0.61497,0.602424 -1.11813,1.147639 -1.11813,1.211587 0,0.244149 0.40554,0.094 1.43935,-0.532903 1.08769,-0.659574 1.81924,-0.976548 2.04971,-0.888111 0.35991,0.13811 -0.43361,0.79931 -2.32596,1.938113 l -1.20014,0.722235 -1.91732,0.293716 c -1.05453,0.161543 -2.56409,0.406642 -3.3546,0.544663 -0.7905,0.138021 -1.46931,0.242791 -1.50845,0.232821 -0.0391,-0.01 -0.29743,-0.03432 -0.57398,-0.05412 z"
       style="fill:#af541a;fill-opacity:1;stroke:none;stroke-width:0.1005632;stroke-opacity:1" />
    <path
       transform="scale(0.26458333)"
       id="path4884"
       d="m 199.63178,72.66201 c -1.5191,-0.0063 -2.92729,0.771559 -4.12289,1.643973 -0.48254,0.482559 -0.87289,1.046943 -1.46936,1.406902 -0.67786,0.614937 -1.48412,1.415299 -1.39728,2.401143 0.24704,0.396728 0.67514,-0.185575 0.89957,-0.347846 0.16344,-0.167074 0.44771,-0.369142 0.35767,0.02593 0.0683,0.543988 -0.24063,1.108484 -0.11117,1.636313 0.35029,0.39312 0.82502,-0.190151 0.74263,-0.578042 0.13465,-0.834449 0.39368,-1.911134 1.36939,-2.105542 1.33159,-0.350836 2.53522,-1.276975 3.96176,-1.126539 3.19083,-0.04899 6.39565,-0.07768 9.57865,-0.01459 2.75348,0.962756 5.60574,1.684356 8.26236,2.895222 0.69329,0.290753 1.18768,0.908789 1.32912,1.650914 0.0143,0.24536 0.38627,0.457855 0.42445,0.108223 0.22632,-0.919787 0.51426,-1.856299 0.56763,-2.799075 -3.3546,-1.776436 -6.94765,-3.101194 -10.62833,-4.040062 -1.18364,-0.356288 -2.45084,-0.08643 -3.67186,-0.177386 -2.04869,0.0025 -4.03673,-0.638366 -6.09234,-0.579534 z"
       style="fill:#af541a;fill-opacity:1;stroke:none;stroke-width:0.1005632;stroke-opacity:1" />
    <path
       transform="scale(0.26458333)"
       id="path4890"
       d="m 201.88149,76.126334 c -1.09702,-0.05397 -2.2113,0.07798 -3.18109,0.626752 -0.88815,0.501793 -1.8762,0.699095 -2.82854,1.03254 -0.48641,0.136332 -0.80866,0.954097 -0.20289,1.15687 1.65479,0.778503 3.06478,2.002332 4.77375,2.692178 2.24692,1.089375 4.7415,1.386439 7.14823,1.930627 1.88886,0.566103 3.88665,0.398846 5.8288,0.429317 1.61358,-0.957861 3.39099,-1.763099 4.70074,-3.140636 0.19123,-0.334595 0.65853,-0.944155 0.18541,-1.243291 -3.26554,-1.542424 -6.76306,-2.545431 -10.25076,-3.426471 -2.05781,-0.02369 -4.11558,-0.07617 -6.17365,-0.05789 z"
       style="fill:#ff7f2a;fill-opacity:1;stroke:none;stroke-width:0.1005632;stroke-opacity:1" />
    <path
       transform="scale(0.26458333)"
       id="path4894"
       d="m 220.71293,79.756233 c -0.21396,1.16102 -0.53262,2.335534 -0.72142,3.48259 0.29999,0.207411 0.57754,-0.326331 0.79354,-0.476592 0.48453,-0.617039 1.34831,-1.362474 1.01817,-2.235472 -0.21716,-0.393258 -0.62916,-0.677375 -1.02959,-0.836717 z"
       style="fill:#806009;fill-opacity:1;stroke:none;stroke-width:0.1005632;stroke-opacity:1" />
    <path
       transform="scale(0.26458333)"
       id="path4898"
       d="M 148.76804,2.9592639 C 99.582933,2.9871181 50.397846,3.0370548 1.2127512,3.0747544 0.97993319,16.147804 1.1795322,29.399966 1.1129737,42.541883 14.336924,42.467253 27.730565,41.592397 41.029338,41.676806 c 39.822408,-0.260572 79.652502,-0.581286 119.472422,0.03735 17.94775,0.299717 35.86525,1.486808 53.69978,3.514504 8.01229,0.654047 16.03179,1.742579 24.06303,1.892776 1.99597,-1.051448 1.72967,-3.997169 2.42687,-5.866447 2.50546,-12.553556 5.0816,-25.129696 6.6851,-37.831404 -0.8133,-0.7790474 -2.74525,-0.042563 -3.90228,-0.3181698 C 211.90603,2.9280265 180.33665,2.9704579 148.76804,2.9592639 Z"
       style="fill:#806009;fill-opacity:1;stroke:none;stroke-width:0.40225279;stroke-opacity:1" />
    <path
       transform="scale(0.26458333)"
       id="path4900"
       d="m 349.69802,2.8767706 c -8.13905,0.1786355 -16.33491,-0.3222328 -24.44157,0.4391784 -1.39617,1.0374822 -1.10223,3.3697849 -1.67343,4.9060185 -2.71336,15.7732565 -4.63704,31.8248165 -4.92289,47.7843825 21.88196,3.18719 43.88114,5.729005 65.59313,9.956545 4.07027,0.642273 8.19141,2.228167 12.27264,2.175464 -0.0665,-21.741132 0.13305,-43.592483 -0.0998,-65.264731 -15.57603,9.575e-4 -31.15207,-0.00254 -46.7281,0.00314 z"
       style="fill:#97bbad;fill-opacity:1;stroke:none;stroke-width:0.40225279;stroke-opacity:1" />
    <flowRoot
       transform="matrix(0.25772863,0.04917695,-0.04917695,0.25772863,11.000594,-4.3286904)"
       style="font-style:normal;font-weight:normal;font-size:40px;line-height:1.25;font-family:sans-serif;letter-spacing:0px;word-spacing:0px;fill:#000000;fill-opacity:1;stroke:none"
       id="flowRoot4525"
       xml:space="preserve"><flowRegion
         id="flowRegion4527"><rect
           y="151.29733"
           x="56.048828"
           height="57.153229"
           width="285.7662"
           id="display" /></flowRegion><flowPara
         style="font-style:normal;font-variant:normal;font-weight:normal;font-stretch:normal;font-size:24px;font-family:sans-serif;-inkscape-font-specification:sans-serif;fill:#f2f2f2"
         id="displaytext">123 : 23 : 12 :12</flowPara></flowRoot>  </g>
</svg>
